<svg xmlns="http://www.w3.org/2000/svg" version="1.1" xmlns:xlink="http://www.w3.org/1999/xlink" viewBox="0 0 17.306458723291307 5.870918826135384"><g transform="matrix(0.7524535643868667,0,0,0.7524535643868667,5.870110422539808,2.22887956943379)"><g transform="matrix(1,0,0,1,0,0)" clip-path="url(#SvgjsClipPath58749)"><g clip-path="url(#SvgjsClipPath5874700d891e3-76da-4e19-89f9-af669f923a82)"><path d=" M -0.7785844812981546 2.839800784225136 C -0.7785844812981546 2.8778913405767694 -1.2624644660895847 2.9087698312668673 -1.8593607980089342 2.9087698312668673 C -2.4562571299282845 2.9087698312668673 -2.9401371147197146 2.8778913405767694 -2.9401371147197146 2.839800784225136 C -2.9401371147197146 2.8017102278735018 -2.4562571299282845 2.770831737183404 -1.8593607980089342 2.770831737183404 C -1.2624644660895847 2.770831737183404 -0.7785844812981546 2.8017102278735018 -0.7785844812981546 2.839800784225136 Z" fill="#facf0e" transform="matrix(1,0,0,1,0,0)" fill-rule="nonzero"></path></g><g clip-path="url(#SvgjsClipPath5874700d891e3-76da-4e19-89f9-af669f923a82)"><path d=" M -1.3130945958715792 0.9494219039449312 C -1.2182621561891964 0.9345308596972846 -1.1202947598231 0.9165048587659228 -1.0207598851151456 0.8953439011508459 L -1.143806934950963 0.16254777633244166 L -1.4439790374166837 0.1711689072126581 L -1.3130945958715792 0.9494219039449312 Z" fill="#202020" transform="matrix(1,0,0,1,0,0)" fill-rule="nonzero"></path></g><g clip-path="url(#SvgjsClipPath5874700d891e3-76da-4e19-89f9-af669f923a82)"><path d=" M -3.240309217185435 0.22132821415209958 L -3.136071907451908 0.8396984200149027 C -3.0357532935730247 0.8718317260229826 -2.930732244668569 0.9000463361764182 -2.8202250215676115 0.9243422504752103 L -2.9401371147197146 0.21270708327188292 L -3.240309217185435 0.22132821415209958 Z" fill="#202020" transform="matrix(1,0,0,1,0,0)" fill-rule="nonzero"></path></g><g clip-path="url(#SvgjsClipPath5874700d891e3-76da-4e19-89f9-af669f923a82)"><path d=" M -3.0302671193765236 -0.3210192921306121 C -3.04515816362417 -0.40958181844556374 -2.9855939866335834 -0.49265817056401395 -2.8978151994895605 -0.5075492148116606 L -1.755123488275407 -0.7003490508601391 C -1.6665609619604558 -0.7152400951077859 -1.5834846098420057 -0.6556759181171989 -1.5685935655943588 -0.5678971309731762 L -1.4815985176212645 -0.05298049567297114 L -1.1814264151555438 -0.06160162655318768 L -1.285663724889071 -0.6815393107578482 C -1.3240669442645805 -0.9096074094981217 -1.5403789554409224 -1.0632202870001615 -1.768447054181196 -1.0248170676246515 L -2.991080160830084 -0.8186936656703838 C -3.2191482595703578 -0.7802904462948739 -3.3727611370723976 -0.563978435118532 -3.3343579176968876 -0.33591033637825884 L -3.277928697390016 -0.0012537103916718806 L -2.977756594924295 -0.009874841271888313 L -3.0302671193765236 -0.3210192921306121 Z M -2.4361928278125125 -0.818693665670384 L -2.2974709945581195 -0.8422058407982473 C -2.2802287327976867 -0.8453407974819624 -2.264553949379111 -0.8335847099180308 -2.261418992695395 -0.8171261873285265 L -2.24574420927682 -0.7254287043298598 C -2.2426092525931045 -0.7081864425694268 -2.2543653401570367 -0.6925116591508512 -2.270823862746541 -0.6893767024671362 L -2.409545696000934 -0.665864527339273 C -2.4267879577613667 -0.6627295706555578 -2.442462741179942 -0.6744856582194896 -2.445597697863657 -0.6909441808089938 L -2.461272481282233 -0.7826416638076604 C -2.4644074379659484 -0.7998839255680935 -2.452651350402016 -0.815558708986669 -2.4361928278125125 -0.818693665670384 Z" fill="#202020" transform="matrix(1,0,0,1,0,0)" fill-rule="nonzero"></path></g><g clip-path="url(#SvgjsClipPath5874700d891e3-76da-4e19-89f9-af669f923a82)"><path d=" M -1.0207598851151456 0.8953439011508459 C -1.1202947598231 0.9165048587659228 -1.2182621561891964 0.9345308596972846 -1.3130945958715778 0.9494219039449312 L -1.2206133737019824 1.499606801936931 C -1.205722329454336 1.5881693282518823 -1.2652865064449235 1.6712456803703324 -1.3530652935889456 1.6861367246179793 L -2.4957570048030986 1.878936560666458 C -2.5843195311180502 1.8938276049141045 -2.6673958832365003 1.8342634279235175 -2.6822869274841477 1.746484640779495 L -2.8202250215676115 0.9251259896461395 C -2.930732244668569 0.9016138145182762 -3.0357532935730247 0.8726154651939115 -3.136071907451908 0.8404821591858318 L -2.9644330290185064 1.8601268205641674 C -2.9511094631127177 1.937716998486116 -2.9181924179337093 2.0059023063569197 -2.8703843285070536 2.062331526663791 L -1.9910289787249686 1.8914763874013185 C -1.9526257593494591 1.8836389956920305 -1.9142225399739488 1.89696256159782 -1.8891428865042283 1.9236096934093982 L -1.6853707020627469 1.8891251698885325 C -1.6681284403023136 1.8859902132048179 -1.6516699177128094 1.8977463007687492 -1.6485349610290942 1.9157723017001107 C -1.6454000043453791 1.9330145634605436 -1.657156091909311 1.9494730860500482 -1.6751820928406724 1.9526080427337633 L -1.8593607980089342 1.983957609570914 C -1.8491721887868606 2.043521786561501 -1.8891428865042283 2.1007347460393015 -1.948707063494814 2.112490833603233 L -2.0223785455621197 2.1265981386799506 L -1.259800332248421 1.9980649146476321 C -1.0317322335081478 1.9596616952721226 -0.8781193560061085 1.7433496840957798 -0.9165225753816184 1.515281585355507 L -1.0207598851151456 0.8953439011508459 Z" fill="#1192dc" transform="matrix(1,0,0,1,0,0)" fill-rule="nonzero"></path></g><g clip-path="url(#SvgjsClipPath5874700d891e3-76da-4e19-89f9-af669f923a82)"><path d=" M -2.085142762630052 2.1864306835747485 C -1.9813168659531866 2.1965703250254904 -1.9093255847372732 2.329469787711114 -1.924345717508705 2.4832699749046463 C -1.9393658502801365 2.637070162098178 -2.035709573380339 2.7535300211588325 -2.1395354700572047 2.7433903797080905 C -2.2433613667340704 2.7332507382573477 -2.3153526479499837 2.600351275571725 -2.300332515178552 2.446551088378193 C -2.2853123824071204 2.292750901184661 -2.188968659306918 2.1762910421240056 -2.085142762630052 2.1864306835747485 Z" fill="#1192dc" transform="matrix(1,0,0,1,0,0)" fill-rule="nonzero"></path></g><g clip-path="url(#SvgjsClipPath5874700d891e3-76da-4e19-89f9-af669f923a82)"><path d=" M -1.4778570081076547 2.086959439396099 C -1.3921252511006155 2.09533214249897 -1.3326876910215955 2.205146168582893 -1.345099487078615 2.3322359591209647 C -1.357511283135635 2.4593257496590377 -1.4370723365790492 2.555564944625961 -1.5228040935860885 2.5471922415230903 C -1.6085358505931264 2.5388195384202192 -1.6679734106721473 2.4290055123362975 -1.6555616146151277 2.3019157217982245 C -1.6431498185581082 2.174825931260153 -1.5635887651146931 2.078586736293228 -1.4778570081076547 2.086959439396099 Z" fill="#1192dc" transform="matrix(1,0,0,1,0,0)" fill-rule="nonzero"></path></g><g clip-path="url(#SvgjsClipPath5874700d891e3-76da-4e19-89f9-af669f923a82)"><path d=" M -1.858577058838006 1.9831738703999844 L -2.0114061971691166 2.0090372630406343 C -2.012973675510974 2.0090372630406343 -2.0153248930237604 2.0098210022115635 -2.0168923713656177 2.0098210022115635 C -2.0325671547841933 2.0098210022115635 -2.0458907206899823 1.9988486538185604 -2.048241938202769 1.9831738703999848 C -2.0513768948864834 1.965931608639552 -2.039620807322552 1.9494730860500473 -2.0215948063911906 1.946338129366333 L -1.8875754081623701 1.9236096934093982 C -1.9134388008030196 1.8977463007687487 -1.951058281007601 1.8844227348629596 -1.989461500383111 1.8914763874013185 L -2.868816850165196 2.062331526663791 L -3.2834148715865177 2.142272922098526 C -3.3327904393550307 2.1516777921496715 -3.382949746294472 2.141489182927597 -3.4237041831827684 2.112490833603232 C -3.4652423592419934 2.0842762234497965 -3.4926732302245003 2.0411705690487136 -3.5005106219337883 1.991011262109272 L -3.7395510690670646 0.5732271018991193 C -3.828897334552945 0.5222840557887487 -3.911189947500466 0.46820605299466345 -3.987996386251486 0.4133443110296491 C -3.987996386251486 0.4368564861575126 -3.9864289079096284 0.4595849221144468 -3.9825102120549842 0.4830970972423101 L -3.7223088073066313 2.0286307423138537 C -3.7034990672043406 2.138354226243882 -3.6431511510428254 2.233970405097192 -3.551453668044158 2.2966695387714946 C -3.4817008818314976 2.34447762819815 -3.401759486396762 2.3695572816678707 -3.319466873449241 2.3695572816678707 C -3.293603480808591 2.3695572816678707 -3.266956348997013 2.3672060641550843 -3.2403092171854344 2.361719889958583 L -2.0215948063911906 2.1258143995090224 L -1.9479233243238858 2.1117070944323038 C -1.8883591473332992 2.0999510068683724 -1.8491721887868606 2.042738047390572 -1.858577058838006 1.9831738703999844 Z" fill="#1192dc" transform="matrix(1,0,0,1,0,0)" fill-rule="nonzero"></path></g><g clip-path="url(#SvgjsClipPath5874700d891e3-76da-4e19-89f9-af669f923a82)"><path d=" M -3.76149576585307 0.4470450953795868 C -3.770900635904215 0.39375083175643 -3.756793330827498 0.3412403073042023 -3.7223088073066313 0.29891839207404836 C -3.6878242837857655 0.25659647684389464 -3.6392324551881816 0.23308430171603112 -3.584370713223167 0.23151682337417379 L -3.240309217185435 0.22211195332302847 L -2.9401371147197146 0.21349082244281203 L -1.4439790374166837 0.1711689072126581 L -1.143806934950963 0.16254777633244188 L -1.0215436242860747 0.15941281964872656 C -0.8687144859549631 0.15549412379408256 -0.7323438702133562 0.05517550991519937 -0.6821845632739145 -0.08824875836476587 L -0.4063083751069856 -0.8751228859772557 C -0.38593115666283806 -0.9339033237969139 -0.41649698432906 -0.9981699358130733 -0.4752774221487175 -1.0185471542572215 C -0.5340578599683763 -1.0389243727013695 -0.5983244719845362 -1.0083585450351473 -0.6187016904286837 -0.9495781072154893 L -0.8945778785956131 -0.16348771877392865 C -0.9141713578688324 -0.10705849846705673 -0.9682493606629183 -0.06787153992061812 -1.028597276824434 -0.06552032240783179 L -1.1822101543264738 -0.06081788738225913 L -1.4823822567921945 -0.052196756502042696 L -2.9777565949242955 -0.010658580442817422 L -3.277928697390016 -0.0020374495626009903 L -3.5906406265905972 0.006583681317615664 C -3.708985241400842 0.009718638001330548 -3.8202762036727287 0.06458037996634469 -3.895515164081891 0.156277862965011 C -3.955863080243406 0.229949345032316 -3.9879963862514862 0.3208630888600539 -3.988780125422415 0.41491178937150686 C -3.911973686671395 0.469773531336521 -3.828897334552945 0.5230677949596778 -3.7403348082379932 0.5747945802409768 L -3.76149576585307 0.4470450953795868 Z" fill="#202020" transform="matrix(1,0,0,1,0,0)" fill-rule="nonzero"></path></g><g clip-path="url(#SvgjsClipPath5874700d891e3-76da-4e19-89f9-af669f923a82)"><path d=" M -2.049025677373698 1.9823901312290557 C -2.046674459860911 1.9980649146476313 -2.0325671547841933 2.0090372630406343 -2.017676110536547 2.0090372630406343 C -2.0161086321946895 2.0090372630406343 -2.0137574146819026 2.0090372630406343 -2.0121899363400457 2.0082535238697052 L -1.8593607980089342 1.9823901312290557 L -1.6751820928406724 1.9510405643919042 C -1.6579398310802396 1.94790560770819 -1.6461837435163083 1.9314470851186853 -1.6485349610290942 1.9142048233582525 C -1.6516699177128094 1.8969625615978196 -1.6681284403023136 1.8852064740338874 -1.6853707020627469 1.8875576915466743 L -1.8891428865042283 1.92204221506754 L -2.023162284733049 1.944770651024474 C -2.0404045464934812 1.9486893468791182 -2.0521606340574126 1.9651478694686229 -2.049025677373698 1.9823901312290557 Z" fill="#fbe585" transform="matrix(1,0,0,1,0,0)" fill-rule="nonzero"></path></g><g clip-path="url(#SvgjsClipPath5874700d891e3-76da-4e19-89f9-af669f923a82)"><path d=" M -2.446381437034586 -0.6909441808089938 C -2.4432464803508713 -0.6737019190485608 -2.427571696932296 -0.662729570655558 -2.410329435171863 -0.665864527339273 L -2.27160760191747 -0.6893767024671362 C -2.2543653401570367 -0.6925116591508513 -2.243392991764033 -0.7081864425694269 -2.246527948447749 -0.7254287043298598 L -2.2622027318663243 -0.8171261873285265 C -2.26533768855004 -0.8343684490889595 -2.281012471968615 -0.8453407974819623 -2.298254733729048 -0.8422058407982473 L -2.436976566983441 -0.818693665670384 C -2.454218828743874 -0.8155587089866689 -2.4651911771368775 -0.7998839255680934 -2.462056220453162 -0.7826416638076604 L -2.446381437034586 -0.6909441808089938 Z" fill="#fbe585" transform="matrix(1,0,0,1,0,0)" fill-rule="nonzero"></path></g></g><g><path d=" M 0.07758620689655173 0.4827586206896554 Q 0.07758620689655173 0.3931034482758623 0.10344827586206896 0.3017241379310347 Q 0.12931034482758622 0.2103448275862071 0.18275862068965518 0.14482758620689684 Q 0.296551724137931 2.220446049250313e-16 0.506896551724138 2.220446049250313e-16 Q 0.6275862068965518 2.220446049250313e-16 0.7413793103448276 0.05344827586206924 Q 0.7706896551724138 0.06551724137931059 0.7706896551724138 0.09310344827586237 Q 0.7706896551724138 0.14482758620689684 0.7293103448275862 0.14655172413793127 Q 0.7206896551724138 0.14655172413793127 0.7137931034482758 0.14482758620689684 Q 0.5948275862068966 0.10344827586206917 0.525 0.10344827586206917 Q 0.45517241379310347 0.10344827586206917 0.4086206896551724 0.1189655172413796 Q 0.3620689655172414 0.13448275862068992 0.3275862068965517 0.1620689655172416 Q 0.29310344827586204 0.18965517241379337 0.2689655172413793 0.22586206896551753 Q 0.24482758620689654 0.26206896551724157 0.23103448275862068 0.3068965517241382 Q 0.20172413793103447 0.3896551724137933 0.20172413793103447 0.4827586206896554 Q 0.20172413793103447 0.6344827586206898 0.2689655172413793 0.7379310344827589 Q 0.3482758620689655 0.8603448275862071 0.5137931034482759 0.8603448275862071 Q 0.6275862068965518 0.8603448275862071 0.7310344827586207 0.8000000000000003 Q 0.7448275862068965 0.7965517241379313 0.7577586206896552 0.7965517241379313 Q 0.7706896551724138 0.7965517241379313 0.781896551724138 0.8086206896551726 Q 0.7931034482758621 0.820689655172414 0.7931034482758621 0.8396551724137933 Q 0.7931034482758621 0.8586206896551727 0.7793103448275862 0.8750000000000002 Q 0.7655172413793103 0.8913793103448278 0.7422413793103448 0.9043103448275864 Q 0.7189655172413792 0.9172413793103451 0.6905172413793104 0.9275862068965519 Q 0.6620689655172414 0.9379310344827588 0.6310344827586207 0.9448275862068968 Q 0.5655172413793104 0.9620689655172416 0.506896551724138 0.9620689655172416 Q 0.29482758620689653 0.9620689655172416 0.18275862068965518 0.8189655172413796 Q 0.07758620689655173 0.6896551724137934 0.07758620689655173 0.4827586206896554 M 0.967205389614763 0.6224137931034486 Q 0.967205389614763 0.5603448275862071 0.9870329758216595 0.49827586206896574 Q 1.006860562028556 0.4362068965517244 1.0482398723733837 0.38620689655172435 Q 1.1344467689251077 0.281034482758621 1.2930674585802802 0.281034482758621 Q 1.4516881482354527 0.281034482758621 1.5378950447871769 0.38620689655172435 Q 1.6189295275457973 0.4862068965517244 1.6189295275457973 0.620689655172414 Q 1.6189295275457973 0.7568965517241382 1.5378950447871769 0.8551724137931037 Q 1.4516881482354527 0.9620689655172416 1.2930674585802802 0.9620689655172416 Q 1.1344467689251077 0.9620689655172416 1.0482398723733837 0.8551724137931037 Q 0.967205389614763 0.7586206896551726 0.967205389614763 0.6224137931034486 M 1.0792743551320043 0.6224137931034486 Q 1.0792743551320043 0.663793103448276 1.0904812516837286 0.7103448275862071 Q 1.1016881482354526 0.7568965517241382 1.1309984930630388 0.7965517241379313 Q 1.1896191827182112 0.881034482758621 1.2930674585802802 0.881034482758621 Q 1.4016881482354526 0.881034482758621 1.4551364240975215 0.7965517241379313 Q 1.5051364240975216 0.717241379310345 1.5051364240975216 0.620689655172414 Q 1.5051364240975216 0.5206896551724141 1.4551364240975215 0.44827586206896575 Q 1.399964010304418 0.36206896551724166 1.2930674585802802 0.36206896551724166 Q 1.1896191827182112 0.36206896551724166 1.1309984930630388 0.44827586206896575 Q 1.0792743551320043 0.5189655172413796 1.0792743551320043 0.6224137931034486 M 1.775842074690194 0.34310344827586226 Q 1.775842074690194 0.320689655172414 1.7930834540005387 0.3068965517241382 Q 1.8103248333108837 0.2931034482758623 1.8275662126212284 0.2931034482758623 Q 1.8637731091729526 0.2931034482758623 1.8741179367591594 0.320689655172414 Q 1.8844627643453664 0.34827586206896577 1.879290350552263 0.4034482758620692 Q 1.8999800057246767 0.35172413793103474 1.968945522966056 0.31379310344827616 Q 2.029290350552263 0.281034482758621 2.0887731091729527 0.281034482758621 Q 2.148255867793642 0.281034482758621 2.1896351781384698 0.2956896551724141 Q 2.2310144884832974 0.3103448275862072 2.265497247103987 0.3413793103448278 Q 2.3344627643453664 0.4068965517241382 2.3344627643453664 0.53448275862069 L 2.3344627643453664 0.9000000000000002 Q 2.3344627643453664 0.9241379310344829 2.316359316069504 0.9362068965517244 Q 2.2982558677936424 0.9482758620689657 2.279290350552263 0.9482758620689657 Q 2.258600695379849 0.9482758620689657 2.243083454000539 0.9353448275862071 Q 2.2275662126212286 0.9224137931034485 2.2275662126212286 0.9000000000000002 L 2.2275662126212286 0.527586206896552 Q 2.2275662126212286 0.4465517241379313 2.182738626414332 0.4034482758620692 Q 2.1413593160695044 0.36206896551724166 2.079290350552263 0.36206896551724166 Q 1.9965317298626077 0.36206896551724166 1.9379110402074353 0.41034482758620716 Q 1.879290350552263 0.46206896551724164 1.879290350552263 0.5689655172413796 L 1.879290350552263 0.9000000000000002 Q 1.879290350552263 0.9241379310344829 1.8620489712419181 0.9362068965517244 Q 1.8448075919315734 0.9482758620689657 1.8241179367591596 0.9482758620689657 Q 1.8034282815867457 0.9482758620689657 1.7896351781384698 0.9353448275862071 Q 1.775842074690194 0.9224137931034485 1.775842074690194 0.9000000000000002 L 1.775842074690194 0.34310344827586226 M 2.536187533674569 0.34310344827586226 Q 2.536187533674569 0.320689655172414 2.5534289129849137 0.3068965517241382 Q 2.5706702922952585 0.2931034482758623 2.5879116716056036 0.2931034482758623 Q 2.6241185681573276 0.2931034482758623 2.6344633957435346 0.320689655172414 Q 2.644808223329741 0.34827586206896577 2.639635809536638 0.4034482758620692 Q 2.660325464709052 0.35172413793103474 2.729290981950431 0.31379310344827616 Q 2.789635809536638 0.281034482758621 2.8491185681573277 0.281034482758621 Q 2.908601326778017 0.281034482758621 2.9499806371228448 0.2956896551724141 Q 2.9913599474676724 0.3103448275862072 3.025842706088362 0.3413793103448278 Q 3.0948082233297414 0.4068965517241382 3.0948082233297414 0.53448275862069 L 3.0948082233297414 0.9000000000000002 Q 3.0948082233297414 0.9241379310344829 3.076704775053879 0.9362068965517244 Q 3.0586013267780174 0.9482758620689657 3.039635809536638 0.9482758620689657 Q 3.018946154364224 0.9482758620689657 3.003428912984914 0.9353448275862071 Q 2.9879116716056036 0.9224137931034485 2.9879116716056036 0.9000000000000002 L 2.9879116716056036 0.527586206896552 Q 2.9879116716056036 0.4465517241379313 2.943084085398707 0.4034482758620692 Q 2.9017047750538794 0.36206896551724166 2.839635809536638 0.36206896551724166 Q 2.7568771888469827 0.36206896551724166 2.6982564991918103 0.41034482758620716 Q 2.639635809536638 0.46206896551724164 2.639635809536638 0.5689655172413796 L 2.639635809536638 0.9000000000000002 Q 2.639635809536638 0.9241379310344829 2.622394430226293 0.9362068965517244 Q 2.6051530509159484 0.9482758620689657 2.5844633957435343 0.9482758620689657 Q 2.5637737405711207 0.9482758620689657 2.549980637122845 0.9353448275862071 Q 2.536187533674569 0.9224137931034485 2.536187533674569 0.9000000000000002 L 2.536187533674569 0.34310344827586226 M 3.8792916133485993 0.6017241379310347 Q 3.8792916133485993 0.6379310344827589 3.8379123030037716 0.6413793103448278 L 3.3654985099003234 0.6413793103448278 Q 3.372395061624461 0.817241379310345 3.503429544383082 0.8689655172413795 Q 3.539636440934806 0.881034482758621 3.586188165072737 0.881034482758621 Q 3.682739889210668 0.881034482758621 3.782739889210668 0.8103448275862071 Q 3.8137743719692887 0.7931034482758623 3.8344640271417028 0.8137931034482762 Q 3.8448088547279093 0.824137931034483 3.8413605788658405 0.8344827586206899 Q 3.8413605788658405 0.8586206896551727 3.829291613348599 0.8689655172413795 Q 3.7344640271417027 0.9637931034482761 3.579291613348599 0.9620689655172416 Q 3.4379123030037717 0.9620689655172416 3.3517054064520475 0.870689655172414 Q 3.2551536823141163 0.7758620689655175 3.2551536823141163 0.620689655172414 Q 3.2551536823141163 0.47758620689655196 3.3344640271417028 0.3844827586206899 Q 3.4172226478313577 0.281034482758621 3.5689467857623924 0.281034482758621 Q 3.720670923693427 0.281034482758621 3.799981268521013 0.37241379310344846 Q 3.87584333748653 0.4551724137931037 3.8792916133485993 0.6017241379310347 M 3.7775674754175648 0.5706896551724141 Q 3.7723950616244615 0.47758620689655196 3.717222647831358 0.4172413793103451 Q 3.665498509900323 0.36206896551724166 3.5689467857623924 0.36206896551724166 Q 3.486188165072737 0.36206896551724166 3.4275674754175647 0.42413793103448305 Q 3.3741191995554956 0.4862068965517244 3.3689467857623923 0.5706896551724141 L 3.7775674754175648 0.5706896551724141 M 3.9965784533270474 0.620689655172414 Q 3.9965784533270474 0.47758620689655196 4.077612936085668 0.3827586206896554 Q 4.165543970568427 0.281034482758621 4.306923280913255 0.281034482758621 Q 4.427612936085668 0.281034482758621 4.491406039533944 0.3310344827586209 Q 4.510371556775324 0.3448275862068968 4.510371556775324 0.3637931034482761 Q 4.510371556775324 0.3827586206896554 4.500026729189116 0.3939655172413795 Q 4.48968190160291 0.40517241379310365 4.475888798154633 0.40517241379310365 Q 4.462095694706358 0.40517241379310365 4.45519914298222 0.40000000000000024 Q 4.389681901602909 0.36206896551724166 4.317268108499461 0.3637931034482761 Q 4.2224405222925645 0.3637931034482761 4.168992246430496 0.43448275862068986 Q 4.1086474188442885 0.5068965517241382 4.1086474188442885 0.620689655172414 Q 4.1086474188442885 0.7258620689655175 4.151750867120151 0.7982758620689657 Q 4.203475005051185 0.881034482758621 4.317268108499461 0.881034482758621 Q 4.379337074016703 0.881034482758621 4.468992246430496 0.8379310344827589 Q 4.493130177464979 0.824137931034483 4.510371556775324 0.8448275862068968 Q 4.52071638436153 0.8551724137931037 4.52071638436153 0.8732758620689658 Q 4.52071638436153 0.8913793103448278 4.498302591258081 0.9094827586206898 Q 4.475888798154633 0.9275862068965519 4.444854315396013 0.9379310344827588 Q 4.368992246430496 0.9637931034482761 4.298302591258082 0.9629310344827589 Q 4.227612936085668 0.9620689655172416 4.17071638436153 0.9362068965517244 Q 4.113819832637392 0.9103448275862072 4.075888798154634 0.8603448275862071 Q 3.9965784533270474 0.7655172413793105 3.9965784533270474 0.620689655172414 M 5.02417307886584 0.9103448275862072 Q 5.02417307886584 0.9620689655172416 4.901759285762393 0.9620689655172416 Q 4.810379975417565 0.9620689655172416 4.772448940934806 0.9120689655172416 Q 4.731069630589978 0.8586206896551727 4.727621354727909 0.7362068965517243 L 4.727621354727909 0.374137931034483 L 4.651759285762393 0.374137931034483 Q 4.631069630589979 0.374137931034483 4.619000665072737 0.36120689655172433 Q 4.606931699555496 0.34827586206896577 4.606931699555496 0.3344827586206899 Q 4.606931699555496 0.320689655172414 4.617276527141702 0.3068965517241382 Q 4.62762135472791 0.2931034482758623 4.651759285762393 0.2931034482758623 L 4.734517906452047 0.2931034482758623 L 4.741414458176186 0.10689655172413814 Q 4.7448627340382545 0.08620689655172442 4.760379975417565 0.07500000000000029 Q 4.775897216796875 0.06379310344827616 4.7931385961072195 0.06379310344827616 Q 4.810379975417565 0.06379310344827616 4.822448940934806 0.07413793103448296 Q 4.834517906452048 0.08448275862068988 4.834517906452048 0.10689655172413814 L 4.834517906452048 0.2931034482758623 L 4.953483423693426 0.2931034482758623 Q 4.9741730788658405 0.2931034482758623 4.9853799754175645 0.3068965517241382 Q 4.9965868719692885 0.320689655172414 4.9965868719692885 0.3344827586206899 Q 4.9965868719692885 0.35172413793103474 4.9853799754175645 0.3629310344827589 Q 4.9741730788658405 0.374137931034483 4.953483423693426 0.374137931034483 L 4.834517906452048 0.374137931034483 L 4.834517906452048 0.6793103448275865 Q 4.834517906452048 0.8068965517241382 4.84313859610722 0.8336206896551727 Q 4.851759285762392 0.8603448275862071 4.870724803003771 0.870689655172414 Q 4.889690320245151 0.881034482758621 4.917276527141703 0.881034482758621 L 4.984517906452047 0.8758620689655174 Q 5.003483423693426 0.8758620689655174 5.013828251279634 0.8879310344827589 Q 5.02417307886584 0.9000000000000002 5.02417307886584 0.9103448275862072 M 6.26724958748653 0.8758620689655174 Q 6.268973725417565 0.8862068965517244 6.268973725417565 0.8965517241379313 Q 6.268973725417565 0.9068965517241382 6.263801311624461 0.9172413793103451 Q 6.258628897831358 0.9275862068965519 6.250008208176185 0.9327586206896554 Q 6.232766828865841 0.9482758620689657 6.212077173693427 0.9482758620689657 Q 6.170697863348599 0.9482758620689657 6.156904759900323 0.9120689655172416 L 6.072422001279634 0.7034482758620693 L 5.606904759900323 0.7034482758620693 L 5.524146139210668 0.9120689655172416 Q 5.512077173693426 0.9482758620689657 5.475870277141703 0.9482758620689657 Q 5.439663380589979 0.9482758620689657 5.420697863348599 0.9172413793103451 Q 5.415525449555496 0.9068965517241382 5.415525449555496 0.8982758620689657 Q 5.415525449555496 0.8896551724137933 5.420697863348599 0.8758620689655174 L 5.732766828865841 0.11034482758620712 Q 5.76724958748653 0.02413793103448303 5.812077173693426 0.01206896551724157 Q 5.824146139210668 0.01034482758620714 5.843111656452048 0.006896551724138167 Q 5.877594415072737 0.006896551724138167 5.894835794383082 0.022413793103448487 Q 5.922422001279633 0.04310344827586232 5.950008208176185 0.11034482758620712 L 6.26724958748653 0.8758620689655174 M 5.639663380589979 0.6120689655172415 L 6.041387518521013 0.6120689655172415 L 5.839663380589979 0.10517241379310371 L 5.639663380589979 0.6120689655172415 M 6.962087276064116 0.9000000000000002 Q 6.962087276064116 0.9241379310344829 6.943983827788254 0.9362068965517244 Q 6.925880379512392 0.9482758620689657 6.9129493450296335 0.9482758620689657 Q 6.900018310546875 0.9482758620689657 6.889673482960668 0.945689655172414 Q 6.8793286553744615 0.9431034482758623 6.872432103650324 0.9344827586206899 Q 6.855190724339979 0.9224137931034485 6.855190724339979 0.9000000000000002 L 6.855190724339979 0.8396551724137933 Q 6.8138114139951504 0.9310344827586209 6.703466586408944 0.9534482758620692 Q 6.668983827788255 0.9620689655172416 6.6293286553744615 0.9620689655172416 Q 6.589673482960668 0.9620689655172416 6.546570034684806 0.9482758620689657 Q 6.503466586408944 0.9344827586206899 6.472432103650323 0.9034482758620692 Q 6.403466586408944 0.8379310344827589 6.403466586408944 0.7068965517241381 L 6.403466586408944 0.3448275862068968 Q 6.403466586408944 0.320689655172414 6.418983827788255 0.3068965517241382 Q 6.434501069167565 0.2931034482758623 6.455190724339978 0.2931034482758623 Q 6.475880379512392 0.2931034482758623 6.491397620891703 0.3068965517241382 Q 6.506914862271013 0.320689655172414 6.506914862271013 0.3448275862068968 L 6.506914862271013 0.7155172413793106 Q 6.506914862271013 0.8086206896551726 6.544845896753771 0.8448275862068968 Q 6.5827769312365305 0.881034482758621 6.658639000202047 0.881034482758621 Q 6.7862252070985996 0.881034482758621 6.8345010691675645 0.777586206896552 Q 6.853466586408944 0.7413793103448278 6.855190724339979 0.6948275862068968 L 6.855190724339979 0.3448275862068968 Q 6.855190724339979 0.320689655172414 6.872432103650324 0.3068965517241382 Q 6.889673482960668 0.2931034482758623 6.910363138133082 0.2931034482758623 Q 6.931052793305495 0.2931034482758623 6.946570034684806 0.3068965517241382 Q 6.962087276064116 0.320689655172414 6.962087276064116 0.3448275862068968 L 6.962087276064116 0.9000000000000002 M 7.508639631600215 0.9103448275862072 Q 7.508639631600215 0.9620689655172416 7.386225838496768 0.9620689655172416 Q 7.29484652815194 0.9620689655172416 7.256915493669181 0.9120689655172416 Q 7.215536183324353 0.8586206896551727 7.212087907462284 0.7362068965517243 L 7.212087907462284 0.374137931034483 L 7.136225838496768 0.374137931034483 Q 7.115536183324354 0.374137931034483 7.103467217807112 0.36120689655172433 Q 7.091398252289871 0.34827586206896577 7.091398252289871 0.3344827586206899 Q 7.091398252289871 0.320689655172414 7.101743079876077 0.3068965517241382 Q 7.112087907462285 0.2931034482758623 7.136225838496768 0.2931034482758623 L 7.218984459186422 0.2931034482758623 L 7.225881010910561 0.10689655172413814 Q 7.2293292867726295 0.08620689655172442 7.24484652815194 0.07500000000000029 Q 7.26036376953125 0.06379310344827616 7.2776051488415945 0.06379310344827616 Q 7.29484652815194 0.06379310344827616 7.306915493669181 0.07413793103448296 Q 7.318984459186423 0.08448275862068988 7.318984459186423 0.10689655172413814 L 7.318984459186423 0.2931034482758623 L 7.437949976427801 0.2931034482758623 Q 7.4586396316002155 0.2931034482758623 7.4698465281519395 0.3068965517241382 Q 7.4810534247036635 0.320689655172414 7.4810534247036635 0.3344827586206899 Q 7.4810534247036635 0.35172413793103474 7.4698465281519395 0.3629310344827589 Q 7.4586396316002155 0.374137931034483 7.437949976427801 0.374137931034483 L 7.318984459186423 0.374137931034483 L 7.318984459186423 0.6793103448275865 Q 7.318984459186423 0.8068965517241382 7.327605148841595 0.8336206896551727 Q 7.336225838496767 0.8603448275862071 7.355191355738146 0.870689655172414 Q 7.374156872979526 0.881034482758621 7.401743079876078 0.881034482758621 L 7.468984459186422 0.8758620689655174 Q 7.487949976427801 0.8758620689655174 7.498294804014009 0.8879310344827589 Q 7.508639631600215 0.9000000000000002 7.508639631600215 0.9103448275862072 M 7.5793269716460125 0.6224137931034486 Q 7.5793269716460125 0.5603448275862071 7.599154557852909 0.49827586206896574 Q 7.618982144059806 0.4362068965517244 7.660361454404634 0.38620689655172435 Q 7.746568350956358 0.281034482758621 7.90518904061153 0.281034482758621 Q 8.063809730266703 0.281034482758621 8.150016626818427 0.38620689655172435 Q 8.231051109577047 0.4862068965517244 8.231051109577047 0.620689655172414 Q 8.231051109577047 0.7568965517241382 8.150016626818427 0.8551724137931037 Q 8.063809730266703 0.9620689655172416 7.90518904061153 0.9620689655172416 Q 7.746568350956358 0.9620689655172416 7.660361454404634 0.8551724137931037 Q 7.5793269716460125 0.7586206896551726 7.5793269716460125 0.6224137931034486 M 7.6913959371632545 0.6224137931034486 Q 7.6913959371632545 0.663793103448276 7.702602833714979 0.7103448275862071 Q 7.713809730266703 0.7568965517241382 7.743120075094289 0.7965517241379313 Q 7.801740764749461 0.881034482758621 7.90518904061153 0.881034482758621 Q 8.013809730266702 0.881034482758621 8.067258006128771 0.7965517241379313 Q 8.117258006128772 0.717241379310345 8.117258006128772 0.620689655172414 Q 8.117258006128772 0.5206896551724141 8.067258006128771 0.44827586206896575 Q 8.012085592335668 0.36206896551724166 7.90518904061153 0.36206896551724166 Q 7.801740764749461 0.36206896551724166 7.743120075094289 0.44827586206896575 Q 7.6913959371632545 0.5189655172413796 7.6913959371632545 0.6224137931034486 M 8.925894691204203 0.4172413793103451 Q 9.008653311893857 0.281034482758621 9.16382572568696 0.281034482758621 Q 9.324170553273168 0.281034482758621 9.377618829135237 0.41551724137931056 Q 9.396584346376617 0.4655172413793106 9.396584346376617 0.5310344827586209 L 9.396584346376617 0.9000000000000002 Q 9.396584346376617 0.9241379310344829 9.38020503603179 0.9362068965517244 Q 9.363825725686961 0.9482758620689657 9.344860208445581 0.9482758620689657 Q 9.324170553273168 0.9482758620689657 9.30779124292834 0.9353448275862071 Q 9.291411932583513 0.9224137931034485 9.291411932583513 0.9000000000000002 L 9.291411932583513 0.5241379310344829 Q 9.291411932583513 0.4448275862068968 9.246584346376617 0.40000000000000024 Q 9.205205036031789 0.36206896551724166 9.139687794652477 0.36206896551724166 Q 9.008653311893857 0.36206896551724166 8.962101587755926 0.4689655172413795 Q 8.943136070514548 0.5086206896551726 8.943136070514548 0.5655172413793106 L 8.943136070514548 0.9000000000000002 Q 8.943136070514548 0.9241379310344829 8.92675676016972 0.9362068965517244 Q 8.910377449824892 0.9482758620689657 8.891411932583512 0.9482758620689657 Q 8.8707222774111 0.9482758620689657 8.854342967066271 0.9353448275862071 Q 8.837963656721444 0.9224137931034485 8.837963656721444 0.9000000000000002 L 8.837963656721444 0.5241379310344829 Q 8.837963656721444 0.4448275862068968 8.794860208445582 0.40000000000000024 Q 8.753480898100754 0.36206896551724166 8.700032622238686 0.36206896551724166 Q 8.646584346376617 0.36206896551724166 8.612101587755927 0.374137931034483 Q 8.577618829135236 0.38620689655172435 8.550032622238685 0.41379310344827613 Q 8.494860208445582 0.4689655172413795 8.491411932583514 0.5689655172413796 L 8.491411932583514 0.9000000000000002 Q 8.491411932583514 0.9241379310344829 8.474170553273169 0.9362068965517244 Q 8.456929173962823 0.9482758620689657 8.437963656721443 0.9482758620689657 Q 8.418998139480065 0.9482758620689657 8.40175676016972 0.9353448275862071 Q 8.384515380859375 0.9224137931034485 8.384515380859375 0.9000000000000002 L 8.384515380859375 0.34310344827586226 Q 8.384515380859375 0.320689655172414 8.40175676016972 0.3068965517241382 Q 8.418998139480065 0.2931034482758623 8.434515380859375 0.2931034482758623 Q 8.450032622238686 0.2931034482758623 8.458653311893858 0.2974137931034485 Q 8.46727400154903 0.3017241379310347 8.474170553273169 0.3068965517241382 Q 8.491411932583514 0.320689655172414 8.491411932583514 0.3413793103448278 L 8.491411932583514 0.4034482758620692 Q 8.515549863617995 0.3448275862068968 8.579342967066271 0.3120689655172416 Q 8.63623951879041 0.281034482758621 8.712101587755926 0.281034482758621 Q 8.829342967066271 0.281034482758621 8.891411932583512 0.3551724137931037 Q 8.912101587755927 0.3827586206896554 8.925894691204203 0.4172413793103451 M 9.90863563274515 0.5500000000000003 Q 9.944842529296874 0.5500000000000003 9.9810494258486 0.5517241379310347 L 9.9810494258486 0.49655172413793125 Q 9.9810494258486 0.36206896551724166 9.8310494258486 0.36206896551724166 Q 9.763808046538255 0.36206896551724166 9.732773563779634 0.374137931034483 Q 9.67760114998653 0.39482758620689684 9.653463218952048 0.40948275862068995 Q 9.629325287917565 0.42413793103448305 9.61553218446929 0.42413793103448305 Q 9.601739081021012 0.42413793103448305 9.589670115503772 0.41379310344827613 Q 9.57760114998653 0.4034482758620692 9.57760114998653 0.38620689655172435 Q 9.57760114998653 0.37241379310344846 9.59311839136584 0.3586206896551727 Q 9.674152874124461 0.281034482758621 9.832773563779634 0.281034482758621 Q 10.015532184469288 0.281034482758621 10.067256322400324 0.4034482758620692 Q 10.084497701710667 0.4465517241379313 10.084497701710667 0.5034482758620692 L 10.0810494258486 0.9017241379310347 Q 10.0810494258486 0.9241379310344829 10.065532184469289 0.9362068965517244 Q 10.050014943089979 0.9482758620689657 10.031049425848598 0.9482758620689657 Q 10.01208390860722 0.9482758620689657 9.99656666722791 0.9379310344827588 Q 9.9810494258486 0.9275862068965519 9.9810494258486 0.9034482758620692 L 9.9810494258486 0.8413793103448278 Q 9.939670115503771 0.9310344827586209 9.832773563779634 0.9534482758620692 Q 9.800014943089979 0.9620689655172416 9.75863563274515 0.9620689655172416 Q 9.717256322400324 0.9620689655172416 9.676739081021013 0.9500000000000002 Q 9.636221839641703 0.9379310344827588 9.605187356883082 0.9120689655172416 Q 9.541394253434806 0.8586206896551727 9.541394253434806 0.7672413793103451 Q 9.541394253434806 0.5500000000000003 9.90863563274515 0.5500000000000003 M 9.9810494258486 0.627586206896552 Q 9.953463218952047 0.631034482758621 9.917256322400323 0.631034482758621 Q 9.8810494258486 0.631034482758621 9.84311839136584 0.6318965517241382 Q 9.805187356883081 0.6327586206896554 9.770704598262393 0.6405172413793105 Q 9.736221839641702 0.6482758620689657 9.708635632745152 0.663793103448276 Q 9.650014943089978 0.6948275862068968 9.64656666722791 0.7655172413793105 Q 9.64656666722791 0.820689655172414 9.691394253434806 0.8517241379310347 Q 9.725877012055495 0.8793103448275864 9.789670115503771 0.881034482758621 Q 9.867256322400323 0.881034482758621 9.924152874124461 0.8310344827586209 Q 9.975877012055495 0.7827586206896554 9.9810494258486 0.6862068965517244 L 9.9810494258486 0.627586206896552 M 10.627566633553341 0.9103448275862072 Q 10.627566633553341 0.9620689655172416 10.505152840449892 0.9620689655172416 Q 10.413773530105065 0.9620689655172416 10.375842495622306 0.9120689655172416 Q 10.334463185277478 0.8586206896551727 10.33101490941541 0.7362068965517243 L 10.33101490941541 0.374137931034483 L 10.255152840449892 0.374137931034483 Q 10.234463185277479 0.374137931034483 10.222394219760236 0.36120689655172433 Q 10.210325254242996 0.34827586206896577 10.210325254242996 0.3344827586206899 Q 10.210325254242996 0.320689655172414 10.220670081829203 0.3068965517241382 Q 10.231014909415409 0.2931034482758623 10.255152840449892 0.2931034482758623 L 10.337911461139548 0.2931034482758623 L 10.344808012863686 0.10689655172413814 Q 10.348256288725754 0.08620689655172442 10.363773530105064 0.07500000000000029 Q 10.379290771484374 0.06379310344827616 10.39653215079472 0.06379310344827616 Q 10.413773530105065 0.06379310344827616 10.425842495622305 0.07413793103448296 Q 10.437911461139548 0.08448275862068988 10.437911461139548 0.10689655172413814 L 10.437911461139548 0.2931034482758623 L 10.556876978380927 0.2931034482758623 Q 10.57756663355334 0.2931034482758623 10.588773530105065 0.3068965517241382 Q 10.599980426656789 0.320689655172414 10.599980426656789 0.3344827586206899 Q 10.599980426656789 0.35172413793103474 10.588773530105065 0.3629310344827589 Q 10.57756663355334 0.374137931034483 10.556876978380927 0.374137931034483 L 10.437911461139548 0.374137931034483 L 10.437911461139548 0.6793103448275865 Q 10.437911461139548 0.8068965517241382 10.44653215079472 0.8336206896551727 Q 10.455152840449893 0.8603448275862071 10.474118357691271 0.870689655172414 Q 10.493083874932651 0.881034482758621 10.520670081829202 0.881034482758621 L 10.587911461139548 0.8758620689655174 Q 10.606876978380926 0.8758620689655174 10.617221805967134 0.8879310344827589 Q 10.627566633553341 0.9000000000000002 10.627566633553341 0.9103448275862072 M 11.327564318426724 0.6017241379310347 Q 11.327564318426724 0.6379310344827589 11.286185008081896 0.6413793103448278 L 10.813771214978448 0.6413793103448278 Q 10.820667766702586 0.817241379310345 10.951702249461206 0.8689655172413795 Q 10.987909146012932 0.881034482758621 11.034460870150863 0.881034482758621 Q 11.131012594288793 0.881034482758621 11.231012594288792 0.8103448275862071 Q 11.262047077047415 0.7931034482758623 11.282736732219828 0.8137931034482762 Q 11.293081559806035 0.824137931034483 11.289633283943965 0.8344827586206899 Q 11.289633283943965 0.8586206896551727 11.277564318426725 0.8689655172413795 Q 11.182736732219828 0.9637931034482761 11.027564318426725 0.9620689655172416 Q 10.886185008081897 0.9620689655172416 10.799978111530173 0.870689655172414 Q 10.703426387392241 0.7758620689655175 10.703426387392241 0.620689655172414 Q 10.703426387392241 0.47758620689655196 10.782736732219828 0.3844827586206899 Q 10.865495352909482 0.281034482758621 11.017219490840517 0.281034482758621 Q 11.168943628771551 0.281034482758621 11.248253973599137 0.37241379310344846 Q 11.324116042564656 0.4551724137931037 11.327564318426724 0.6017241379310347 M 11.22584018049569 0.5706896551724141 Q 11.220667766702586 0.47758620689655196 11.165495352909483 0.4172413793103451 Q 11.113771214978449 0.36206896551724166 11.017219490840517 0.36206896551724166 Q 10.934460870150861 0.36206896551724166 10.87584018049569 0.42413793103448305 Q 10.822391904633621 0.4862068965517244 10.817219490840516 0.5706896551724141 L 11.22584018049569 0.5706896551724141" fill="#202020" fill-rule="nonzero"></path></g><g><path d=" M 0.372 1.8780689655172416 L 0.372 1.8188189655172415 L 0.14025 1.8188189655172415 L 0.14025 1.6275689655172416 L 0.3585 1.6275689655172416 L 0.3585 1.5690689655172416 L 0.14025 1.5690689655172416 L 0.14025 1.4018189655172415 L 0.372 1.4018189655172415 L 0.372 1.3425689655172417 L 0.07275 1.3425689655172417 L 0.07275 1.8780689655172416 M 0.5478519287109375 1.8780689655172416 L 0.5478519287109375 1.3080689655172415 L 0.4818519287109374 1.3080689655172415 L 0.4818519287109374 1.8780689655172416 M 0.8317236328124998 1.4685689655172416 C 0.7252236328124999 1.4685689655172416 0.6539736328124999 1.5480689655172415 0.6539736328124999 1.6800689655172416 C 0.6539736328124999 1.8143189655172416 0.7327236328124999 1.8855689655172416 0.8474736328124999 1.8855689655172416 C 0.9022236328124998 1.8855689655172416 0.9382236328124999 1.8773189655172415 0.9794736328124999 1.8593189655172415 L 0.9794736328124999 1.8015689655172415 C 0.9374736328124998 1.8195689655172416 0.9014736328124999 1.8293189655172415 0.8504736328124999 1.8293189655172415 C 0.7702236328124998 1.8293189655172415 0.7244736328124999 1.7805689655172416 0.7222236328124999 1.6898189655172415 L 0.9974736328124998 1.6898189655172415 L 0.9974736328124998 1.6500689655172416 C 0.9974736328124998 1.5405689655172417 0.9344736328124998 1.4685689655172416 0.8317236328124998 1.4685689655172416 M 0.8309736328124999 1.5225689655172416 C 0.8977236328124999 1.5225689655172416 0.9277236328124998 1.5690689655172416 0.9284736328124998 1.6373189655172415 L 0.7237236328124999 1.6373189655172415 C 0.7304736328124999 1.5653189655172415 0.7679736328124999 1.5225689655172416 0.8309736328124999 1.5225689655172416 M 1.1741033935546872 1.8780689655172416 L 1.2498533935546872 1.8780689655172416 L 1.4028533935546872 1.4760689655172414 L 1.3323533935546872 1.4760689655172414 L 1.2468533935546873 1.7130689655172415 C 1.2356033935546873 1.7453189655172416 1.218353393554687 1.7948189655172415 1.213103393554687 1.8195689655172416 L 1.2101033935546872 1.8195689655172416 C 1.2056033935546873 1.7948189655172415 1.189853393554687 1.7460689655172414 1.177853393554687 1.7130689655172415 L 1.0923533935546872 1.4760689655172414 L 1.0218533935546872 1.4760689655172414 M 1.6199750976562497 1.4693189655172416 C 1.5674750976562497 1.4693189655172416 1.5179750976562498 1.4850689655172415 1.4827250976562498 1.5038189655172416 L 1.5029750976562497 1.5533189655172417 C 1.5359750976562498 1.5375689655172415 1.5742250976562497 1.5225689655172416 1.6162250976562498 1.5225689655172416 C 1.6687250976562498 1.5225689655172416 1.6994750976562498 1.5450689655172416 1.6994750976562498 1.6118189655172417 L 1.6994750976562498 1.6358189655172415 L 1.6312250976562497 1.6380689655172416 C 1.4999750976562498 1.6418189655172415 1.4384750976562497 1.6860689655172416 1.4384750976562497 1.7663189655172415 C 1.4384750976562497 1.8480689655172415 1.4924750976562497 1.8855689655172416 1.5652250976562496 1.8855689655172416 C 1.6327250976562497 1.8855689655172416 1.6649750976562498 1.8653189655172415 1.7002250976562499 1.8210689655172416 L 1.7032250976562497 1.8210689655172416 L 1.7159750976562498 1.8780689655172416 L 1.7639750976562496 1.8780689655172416 L 1.7639750976562496 1.6043189655172416 C 1.7639750976562496 1.5105689655172416 1.7174750976562496 1.4693189655172416 1.6199750976562497 1.4693189655172416 M 1.6394750976562498 1.6838189655172415 L 1.6987250976562498 1.6815689655172417 L 1.6987250976562498 1.7175689655172415 C 1.6987250976562498 1.7955689655172415 1.6477250976562496 1.8323189655172416 1.5802250976562497 1.8323189655172416 C 1.5367250976562497 1.8323189655172416 1.5067250976562496 1.8120689655172415 1.5067250976562496 1.7670689655172416 C 1.5067250976562496 1.7160689655172416 1.5389750976562497 1.6875689655172414 1.6394750976562498 1.6838189655172415 M 2.0238306884765622 1.8315689655172416 C 1.9870806884765622 1.8315689655172416 1.9608306884765623 1.8083189655172416 1.9608306884765623 1.7595689655172415 L 1.9608306884765623 1.5270689655172416 L 2.0770806884765625 1.5270689655172416 L 2.0770806884765625 1.4760689655172414 L 1.9608306884765623 1.4760689655172414 L 1.9608306884765623 1.3838189655172415 L 1.9218306884765624 1.3838189655172415 L 1.8955806884765622 1.4693189655172416 L 1.8378306884765623 1.4955689655172415 L 1.8378306884765623 1.5270689655172416 L 1.8948306884765622 1.5270689655172416 L 1.8948306884765622 1.7610689655172416 C 1.8948306884765622 1.8585689655172415 1.9495806884765623 1.8855689655172416 2.0125806884765622 1.8855689655172416 C 2.0365806884765623 1.8855689655172416 2.065830688476562 1.8803189655172416 2.080080688476562 1.8735689655172416 L 2.080080688476562 1.8233189655172415 C 2.067330688476562 1.8278189655172417 2.043330688476562 1.8315689655172416 2.0238306884765622 1.8315689655172416 M 2.3167229003906247 1.4685689655172416 C 2.2102229003906246 1.4685689655172416 2.1389729003906246 1.5480689655172415 2.1389729003906246 1.6800689655172416 C 2.1389729003906246 1.8143189655172416 2.217722900390625 1.8855689655172416 2.332472900390625 1.8855689655172416 C 2.3872229003906247 1.8855689655172416 2.4232229003906247 1.8773189655172415 2.464472900390625 1.8593189655172415 L 2.464472900390625 1.8015689655172415 C 2.4224729003906247 1.8195689655172416 2.3864729003906247 1.8293189655172415 2.335472900390625 1.8293189655172415 C 2.255222900390625 1.8293189655172415 2.2094729003906246 1.7805689655172416 2.207222900390625 1.6898189655172415 L 2.4824729003906247 1.6898189655172415 L 2.4824729003906247 1.6500689655172416 C 2.4824729003906247 1.5405689655172417 2.419472900390625 1.4685689655172416 2.3167229003906247 1.4685689655172416 M 2.3159729003906246 1.5225689655172416 C 2.382722900390625 1.5225689655172416 2.4127229003906248 1.5690689655172416 2.413472900390625 1.6373189655172415 L 2.208722900390625 1.6373189655172415 C 2.215472900390625 1.5653189655172415 2.252972900390625 1.5225689655172416 2.3159729003906246 1.5225689655172416 M 2.575867309570312 1.8375689655172416 C 2.575867309570312 1.8735689655172416 2.5961173095703125 1.8885689655172415 2.621617309570312 1.8885689655172415 C 2.647117309570312 1.8885689655172415 2.668867309570312 1.8735689655172416 2.668867309570312 1.8375689655172416 C 2.668867309570312 1.8008189655172415 2.647117309570312 1.7873189655172417 2.621617309570312 1.7873189655172417 C 2.5961173095703125 1.7873189655172417 2.575867309570312 1.8008189655172415 2.575867309570312 1.8375689655172416" fill="#1192dc" fill-rule="nonzero"></path></g></g><defs><clipPath id="SvgjsClipPath58749"><path d=" M -3.988780125422415 -1.0307008657496257 h 3.588780125422415 v 3.939470697016493 h -3.588780125422415 Z"></path></clipPath><clipPath id="SvgjsClipPath5874700d891e3-76da-4e19-89f9-af669f923a82"><path d=" M -3.988780125422415 -1.0307008657496257 L -0.3999999999999999 -1.0307008657496257 L -0.3999999999999999 2.9087698312668673 L -3.988780125422415 2.9087698312668673 Z"></path></clipPath></defs></svg>