<svg width="57" height="16" viewBox="0 0 57 16" fill="none" xmlns="http://www.w3.org/2000/svg">
<mask id="mask0_2675_7395" style="mask-type:luminance" maskUnits="userSpaceOnUse" x="0" y="0" width="14" height="16">
<path d="M0.758057 0.931152H13.7089V15.0686H0.758057V0.931152Z" fill="white"/>
</mask>
<g mask="url(#mask0_2675_7395)">
<mask id="mask1_2675_7395" style="mask-type:luminance" maskUnits="userSpaceOnUse" x="0" y="0" width="14" height="16">
<path d="M0.758057 0.931152H13.7089V15.0686H0.758057V0.931152Z" fill="white"/>
</mask>
<g mask="url(#mask1_2675_7395)">
<path d="M12.3426 14.8212C12.3426 14.9579 10.5964 15.0687 8.44242 15.0687C6.28841 15.0687 4.54224 14.9579 4.54224 14.8212C4.54224 14.6845 6.28841 14.5737 8.44242 14.5737C10.5964 14.5737 12.3426 14.6845 12.3426 14.8212Z" fill="#FACF0E"/>
</g>
<mask id="mask2_2675_7395" style="mask-type:luminance" maskUnits="userSpaceOnUse" x="0" y="0" width="14" height="16">
<path d="M0.758057 0.931152H13.7089V15.0686H0.758057V0.931152Z" fill="white"/>
</mask>
<g mask="url(#mask2_2675_7395)">
<path d="M10.4137 8.0372C10.7559 7.98376 11.1095 7.91907 11.4687 7.84313L11.0246 5.21338L9.94141 5.24432L10.4137 8.0372Z" fill="white"/>
</g>
<mask id="mask3_2675_7395" style="mask-type:luminance" maskUnits="userSpaceOnUse" x="0" y="0" width="14" height="16">
<path d="M0.758057 0.931152H13.7089V15.0686H0.758057V0.931152Z" fill="white"/>
</mask>
<g mask="url(#mask3_2675_7395)">
<path d="M3.45898 5.42449L3.83514 7.64361C4.19716 7.75893 4.57615 7.86018 4.97494 7.94737L4.54221 5.39355L3.45898 5.42449Z" fill="white"/>
</g>
<mask id="mask4_2675_7395" style="mask-type:luminance" maskUnits="userSpaceOnUse" x="0" y="0" width="14" height="16">
<path d="M0.758057 0.931152H13.7089V15.0686H0.758057V0.931152Z" fill="white"/>
</mask>
<g mask="url(#mask4_2675_7395)">
<path d="M4.21699 3.47795C4.16325 3.16013 4.3782 2.862 4.69497 2.80856L8.81859 2.11667C9.13818 2.06323 9.43798 2.27699 9.49172 2.592L9.80566 4.43985L10.8889 4.40891L10.5127 2.18417C10.3741 1.36572 9.59354 0.814451 8.77051 0.952267L4.35841 1.69197C3.53538 1.82979 2.98104 2.60606 3.11962 3.42452L3.32326 4.62548L4.40649 4.59454L4.21699 3.47795ZM6.36082 1.69197L6.86143 1.6076C6.92365 1.59635 6.98021 1.63853 6.99153 1.6976L7.04809 2.02667C7.0594 2.08855 7.01698 2.1448 6.95759 2.15605L6.45698 2.24042C6.39476 2.25167 6.3382 2.20949 6.32688 2.15042L6.27032 1.82135C6.259 1.75947 6.30143 1.70322 6.36082 1.69197Z" fill="white"/>
</g>
<mask id="mask5_2675_7395" style="mask-type:luminance" maskUnits="userSpaceOnUse" x="0" y="0" width="14" height="16">
<path d="M0.758057 0.931152H13.7089V15.0686H0.758057V0.931152Z" fill="white"/>
</mask>
<g mask="url(#mask5_2675_7395)">
<path d="M11.4687 7.84288C11.1095 7.91882 10.756 7.9835 10.4138 8.03694L10.7475 10.0114C10.8012 10.3292 10.5863 10.6273 10.2695 10.6808L6.1459 11.3727C5.82631 11.4261 5.52651 11.2123 5.47277 10.8973L4.975 7.94975C4.57621 7.86538 4.19722 7.76131 3.83521 7.646L4.4546 11.3051C4.50268 11.5836 4.62147 11.8283 4.79399 12.0308L7.96731 11.4177C8.1059 11.3895 8.24448 11.4373 8.33499 11.533L9.07034 11.4092C9.13256 11.398 9.19195 11.4402 9.20326 11.5048C9.21458 11.5667 9.17215 11.6258 9.1071 11.637L8.44246 11.7495C8.47923 11.9633 8.33499 12.1686 8.12004 12.2108L7.85418 12.2614L10.6061 11.8002C11.4291 11.6623 11.9835 10.8861 11.8449 10.0676L11.4687 7.84288Z" fill="#1192DC"/>
</g>
<mask id="mask6_2675_7395" style="mask-type:luminance" maskUnits="userSpaceOnUse" x="0" y="0" width="14" height="16">
<path d="M0.758057 0.931152H13.7089V15.0686H0.758057V0.931152Z" fill="white"/>
</mask>
<g mask="url(#mask6_2675_7395)">
<path d="M7.6277 12.4763C8.00237 12.5127 8.26217 12.9896 8.20796 13.5416C8.15376 14.0935 7.80609 14.5115 7.43141 14.4751C7.05674 14.4387 6.79694 13.9617 6.85115 13.4098C6.90535 12.8579 7.25302 12.4399 7.6277 12.4763Z" fill="#1192DC"/>
</g>
<mask id="mask7_2675_7395" style="mask-type:luminance" maskUnits="userSpaceOnUse" x="0" y="0" width="14" height="16">
<path d="M0.758057 0.931152H13.7089V15.0686H0.758057V0.931152Z" fill="white"/>
</mask>
<g mask="url(#mask7_2675_7395)">
<path d="M9.81931 12.1195C10.1287 12.1495 10.3432 12.5436 10.2984 12.9997C10.2536 13.4558 9.96649 13.8012 9.65711 13.7711C9.34773 13.7411 9.13324 13.347 9.17803 12.8909C9.22282 12.4348 9.50993 12.0894 9.81931 12.1195Z" fill="#1192DC"/>
</g>
<mask id="mask8_2675_7395" style="mask-type:luminance" maskUnits="userSpaceOnUse" x="0" y="0" width="14" height="16">
<path d="M0.758057 0.931152H13.7089V15.0686H0.758057V0.931152Z" fill="white"/>
</mask>
<g mask="url(#mask8_2675_7395)">
<path d="M8.4454 11.7469L7.89389 11.8397L7.87409 11.8425C7.81752 11.8425 7.76944 11.8031 7.76096 11.7469C7.74965 11.685 7.79207 11.6259 7.85712 11.6147L8.34075 11.5331C8.24742 11.4403 8.11166 11.3925 7.97308 11.4178L4.79976 12.0309L3.3036 12.3178C3.12542 12.3516 2.94441 12.315 2.79734 12.2109C2.64744 12.1097 2.54845 11.955 2.52017 11.775L1.65755 6.68705C1.33513 6.50423 1.03816 6.31016 0.760986 6.11328C0.760986 6.19766 0.766642 6.27922 0.780784 6.3636L1.71977 11.91C1.78765 12.3037 2.00543 12.6469 2.33633 12.8719C2.58805 13.0435 2.87653 13.1335 3.1735 13.1335C3.26683 13.1335 3.363 13.125 3.45916 13.1053L7.85712 12.2587L8.12298 12.2081C8.33793 12.1659 8.47934 11.9606 8.4454 11.7469Z" fill="#1192DC"/>
</g>
<mask id="mask9_2675_7395" style="mask-type:luminance" maskUnits="userSpaceOnUse" x="0" y="0" width="14" height="16">
<path d="M0.758057 0.931152H13.7089V15.0686H0.758057V0.931152Z" fill="white"/>
</mask>
<g mask="url(#mask9_2675_7395)">
<path d="M1.57825 6.23429C1.54432 6.04304 1.59522 5.85459 1.71967 5.70272C1.84411 5.55084 2.01947 5.46646 2.21744 5.46083L3.45906 5.42708L4.54228 5.39615L9.94145 5.24427L11.0247 5.21333L11.4659 5.20208C12.0174 5.18802 12.5095 4.82801 12.6905 4.31331L13.6861 1.48949C13.7596 1.27854 13.6493 1.04791 13.4372 0.974787C13.2251 0.90166 12.9932 1.01135 12.9196 1.22229L11.9241 4.0433C11.8534 4.2458 11.6582 4.38643 11.4404 4.39487L10.8861 4.41175L9.80287 4.44268L4.40653 4.59175L3.3233 4.62269L2.19482 4.65363C1.76775 4.66488 1.36613 4.86176 1.09462 5.19083C0.876844 5.45521 0.760885 5.78147 0.758057 6.11898C1.03523 6.31586 1.33502 6.50711 1.65462 6.69274L1.57825 6.23429Z" fill="white"/>
</g>
<mask id="mask10_2675_7395" style="mask-type:luminance" maskUnits="userSpaceOnUse" x="0" y="0" width="14" height="16">
<path d="M0.758057 0.931152H13.7089V15.0686H0.758057V0.931152Z" fill="white"/>
</mask>
<g mask="url(#mask10_2675_7395)">
<path d="M7.75793 11.7442C7.76642 11.8005 7.81733 11.8399 7.87106 11.8399L7.89086 11.837L8.44237 11.7442L9.10702 11.6317C9.16924 11.6205 9.21166 11.5614 9.20318 11.4995C9.19187 11.4377 9.13247 11.3955 9.07025 11.4039L8.3349 11.5277L7.85126 11.6092C7.78904 11.6233 7.74662 11.6823 7.75793 11.7442Z" fill="#FBE585"/>
</g>
<mask id="mask11_2675_7395" style="mask-type:luminance" maskUnits="userSpaceOnUse" x="0" y="0" width="14" height="16">
<path d="M0.758057 0.931152H13.7089V15.0686H0.758057V0.931152Z" fill="white"/>
</mask>
<g mask="url(#mask11_2675_7395)">
<path d="M6.32412 2.15021C6.33543 2.21209 6.392 2.25146 6.45422 2.24021L6.95482 2.15584C7.01704 2.14458 7.05664 2.08833 7.04533 2.02646L6.98876 1.69739C6.97745 1.63551 6.92088 1.59613 6.85866 1.60738L6.35806 1.69176C6.29583 1.70301 6.25624 1.75926 6.26755 1.82114L6.32412 2.15021Z" fill="#FBE585"/>
</g>
</g>
<path d="M15.4324 6.36234C15.4324 6.14784 15.4635 5.93129 15.5257 5.71267C15.5879 5.49405 15.6833 5.30636 15.8119 5.14962C16.0857 4.80313 16.4756 4.62988 16.9816 4.62988C17.272 4.62988 17.554 4.69382 17.8278 4.82169C17.8983 4.85056 17.9336 4.898 17.9336 4.964C17.9336 5.08775 17.8838 5.15168 17.7842 5.15581C17.7635 5.15581 17.7448 5.15374 17.7282 5.14962C17.442 5.05062 17.2149 5.00112 17.047 5.00112C16.879 5.00112 16.739 5.01968 16.627 5.05681C16.515 5.09393 16.4175 5.14549 16.3345 5.21149C16.2516 5.27749 16.1811 5.3538 16.123 5.44042C16.0649 5.52705 16.0193 5.62398 15.9861 5.73123C15.9156 5.92922 15.8803 6.13959 15.8803 6.36234C15.8803 6.72533 15.9612 7.03057 16.123 7.27806C16.3138 7.57093 16.6083 7.71736 17.0065 7.71736C17.2803 7.71736 17.5416 7.64518 17.7905 7.50081C17.8236 7.49256 17.8558 7.48843 17.8869 7.48843C17.918 7.48843 17.947 7.50287 17.974 7.53174C18.001 7.56062 18.0145 7.59774 18.0145 7.64312C18.0145 7.68849 17.9979 7.73077 17.9647 7.76996C17.9315 7.80914 17.8869 7.8442 17.8309 7.87514C17.7749 7.90608 17.7127 7.93392 17.6443 7.95867C17.5758 7.98342 17.5043 8.00404 17.4296 8.02054C17.272 8.06179 17.1227 8.08242 16.9816 8.08242C16.4714 8.08242 16.0815 7.91123 15.8119 7.56887C15.5589 7.2595 15.4324 6.85732 15.4324 6.36234ZM18.6427 6.86351C18.6427 6.71502 18.6666 6.56652 18.7143 6.41802C18.762 6.26953 18.8356 6.13547 18.9352 6.01585C19.1426 5.76423 19.4371 5.63842 19.8187 5.63842C20.2003 5.63842 20.4948 5.76423 20.7022 6.01585C20.8971 6.25509 20.9946 6.53558 20.9946 6.85732C20.9946 7.18319 20.8971 7.46368 20.7022 7.6988C20.4948 7.95454 20.2003 8.08242 19.8187 8.08242C19.4371 8.08242 19.1426 7.95454 18.9352 7.6988C18.7402 7.46781 18.6427 7.18938 18.6427 6.86351ZM19.0472 6.86351C19.0472 6.96251 19.0606 7.06769 19.0876 7.17907C19.1146 7.29044 19.1633 7.39356 19.2338 7.48843C19.3748 7.69055 19.5698 7.79161 19.8187 7.79161C20.08 7.79161 20.2749 7.69055 20.4035 7.48843C20.5238 7.29869 20.584 7.08832 20.584 6.85732C20.584 6.61808 20.5238 6.41184 20.4035 6.23859C20.2708 6.03235 20.0758 5.92922 19.8187 5.92922C19.5698 5.92922 19.3748 6.03235 19.2338 6.23859C19.1094 6.40771 19.0472 6.61602 19.0472 6.86351ZM21.5609 5.86116C21.5609 5.80754 21.5816 5.76423 21.6231 5.73123C21.6646 5.69823 21.706 5.68173 21.7475 5.68173C21.8346 5.68173 21.8906 5.71473 21.9155 5.78073C21.9404 5.84673 21.9466 5.94572 21.9342 6.07772C21.9839 5.95397 22.0918 5.84673 22.2577 5.75598C22.4029 5.6776 22.547 5.63842 22.6901 5.63842C22.8332 5.63842 22.9546 5.65595 23.0541 5.69101C23.1537 5.72607 23.2449 5.78073 23.3279 5.85498C23.4938 6.01172 23.5767 6.24272 23.5767 6.54796V7.85967C23.5767 7.91742 23.555 7.96073 23.5114 7.98961C23.4679 8.01848 23.4233 8.03292 23.3776 8.03292C23.3279 8.03292 23.2843 8.01745 23.247 7.98651C23.2097 7.95558 23.191 7.9133 23.191 7.85967V6.52321C23.191 6.32934 23.1371 6.18084 23.0292 6.07772C22.9297 5.97872 22.8052 5.92922 22.6559 5.92922C22.4568 5.92922 22.2867 5.98697 22.1457 6.10247C22.0047 6.22622 21.9342 6.41596 21.9342 6.6717V7.85967C21.9342 7.91742 21.9134 7.96073 21.8719 7.98961C21.8305 8.01848 21.7848 8.03292 21.7351 8.03292C21.6853 8.03292 21.6438 8.01745 21.6106 7.98651C21.5774 7.95558 21.5609 7.9133 21.5609 7.85967V5.86116ZM24.3047 5.86116C24.3047 5.80754 24.3254 5.76423 24.3669 5.73123C24.4084 5.69823 24.4499 5.68173 24.4914 5.68173C24.5785 5.68173 24.6345 5.71473 24.6594 5.78073C24.6842 5.84673 24.6905 5.94572 24.678 6.07772C24.7278 5.95397 24.8356 5.84673 25.0016 5.75598C25.1467 5.6776 25.2909 5.63842 25.434 5.63842C25.5771 5.63842 25.6984 5.65595 25.798 5.69101C25.8975 5.72607 25.9888 5.78073 26.0717 5.85498C26.2376 6.01172 26.3206 6.24272 26.3206 6.54796V7.85967C26.3206 7.91742 26.2988 7.96073 26.2553 7.98961C26.2117 8.01848 26.1671 8.03292 26.1215 8.03292C26.0717 8.03292 26.0282 8.01745 25.9908 7.98651C25.9535 7.95558 25.9348 7.9133 25.9348 7.85967V6.52321C25.9348 6.32934 25.8809 6.18084 25.7731 6.07772C25.6735 5.97872 25.5491 5.92922 25.3998 5.92922C25.2007 5.92922 25.0306 5.98697 24.8896 6.10247C24.7485 6.22622 24.678 6.41596 24.678 6.6717V7.85967C24.678 7.91742 24.6573 7.96073 24.6158 7.98961C24.5743 8.01848 24.5287 8.03292 24.4789 8.03292C24.4291 8.03292 24.3877 8.01745 24.3545 7.98651C24.3213 7.95558 24.3047 7.9133 24.3047 7.85967V5.86116ZM29.1515 6.78926C29.1515 6.87589 29.1018 6.92332 29.0022 6.93157H27.2974C27.314 7.35231 27.4799 7.62455 27.7952 7.7483C27.8823 7.77717 27.9818 7.79161 28.0938 7.79161C28.3261 7.79161 28.5625 7.70705 28.8031 7.53793C28.8778 7.49668 28.94 7.50081 28.9898 7.55031C29.0147 7.57505 29.023 7.5998 29.0147 7.62455C29.0147 7.6823 29.0002 7.72355 28.9711 7.7483C28.743 7.97517 28.4423 8.08654 28.0689 8.08242C27.7288 8.08242 27.4551 7.97311 27.2477 7.75449C27.0154 7.52762 26.8992 7.22856 26.8992 6.85732C26.8992 6.51496 26.9946 6.2324 27.1854 6.00966C27.3845 5.76217 27.6666 5.63842 28.0316 5.63842C28.3966 5.63842 28.6745 5.74773 28.8653 5.96635C29.0479 6.16434 29.1433 6.43865 29.1515 6.78926ZM28.7845 6.67789C28.772 6.45515 28.6994 6.27159 28.5667 6.12722C28.4423 5.99522 28.2639 5.92922 28.0316 5.92922C27.8325 5.92922 27.6624 6.00347 27.5214 6.15197C27.3928 6.30046 27.3223 6.47577 27.3099 6.67789H28.7845ZM29.5748 6.85732C29.5748 6.51496 29.6723 6.23034 29.8672 6.00347C30.0788 5.7601 30.3546 5.63842 30.6947 5.63842C30.9851 5.63842 31.207 5.69823 31.3605 5.81785C31.4061 5.85085 31.4289 5.89004 31.4289 5.93541C31.4289 5.98078 31.4165 6.01688 31.3916 6.04369C31.3667 6.0705 31.3377 6.08391 31.3045 6.08391C31.2713 6.08391 31.2464 6.07772 31.2298 6.06534C31.0722 5.9746 30.9063 5.93129 30.7321 5.93541C30.5039 5.93541 30.3256 6.01997 30.197 6.18909C30.0518 6.36234 29.9792 6.58508 29.9792 6.85732C29.9792 7.10894 30.0311 7.32137 30.1348 7.49462C30.2592 7.69261 30.4583 7.79161 30.7321 7.79161C30.8814 7.79161 31.0639 7.74005 31.2796 7.63693C31.3377 7.60393 31.3874 7.61218 31.4289 7.66168C31.4538 7.68643 31.4663 7.72046 31.4663 7.76377C31.4663 7.80708 31.4393 7.85039 31.3854 7.8937C31.3314 7.93701 31.2672 7.97104 31.1925 7.99579C31.01 8.05767 30.8337 8.08757 30.6636 8.08551C30.4936 8.08345 30.3401 8.05148 30.2032 7.98961C30.0663 7.92773 29.9523 7.83699 29.861 7.71736C29.6702 7.49049 29.5748 7.20381 29.5748 6.85732ZM33.2831 7.8968C33.2831 8.02054 33.1358 8.08242 32.8413 8.08242C32.6215 8.08242 32.4659 8.02261 32.3747 7.90298C32.2751 7.77511 32.2212 7.56474 32.2129 7.27188V5.97253H31.9391C31.8894 5.97253 31.85 5.95707 31.8209 5.92613C31.7919 5.89519 31.7774 5.86323 31.7774 5.83023C31.7774 5.79723 31.7898 5.76423 31.8147 5.73123C31.8396 5.69823 31.8811 5.68173 31.9391 5.68173H32.2378L32.2627 5.0135C32.271 4.964 32.2938 4.92584 32.3311 4.89903C32.3685 4.87222 32.4079 4.85881 32.4493 4.85881C32.4908 4.85881 32.5261 4.87119 32.5551 4.89594C32.5841 4.92069 32.5987 4.95987 32.5987 5.0135V5.68173H33.028C33.0778 5.68173 33.1161 5.69823 33.1431 5.73123C33.17 5.76423 33.1835 5.79723 33.1835 5.83023C33.1835 5.87147 33.17 5.90551 33.1431 5.93232C33.1161 5.95913 33.0778 5.97253 33.028 5.97253H32.5987V7.06769C32.5987 7.37293 32.609 7.55752 32.6298 7.62146C32.6505 7.6854 32.6837 7.72974 32.7293 7.75449C32.775 7.77924 32.8309 7.79161 32.8973 7.79161L33.14 7.77305C33.1856 7.77305 33.2209 7.78749 33.2457 7.81636C33.2706 7.84524 33.2831 7.87205 33.2831 7.8968ZM37.7689 7.77305C37.7731 7.7978 37.7752 7.82255 37.7752 7.8473C37.7752 7.87205 37.7689 7.8968 37.7565 7.92155C37.7441 7.94629 37.7275 7.96486 37.7067 7.97723C37.6653 8.01436 37.6196 8.03292 37.5698 8.03292C37.4703 8.03292 37.4039 7.98961 37.3707 7.90298L37.0659 7.15432H35.386L35.0873 7.90298C35.0583 7.98961 35.0002 8.03292 34.9131 8.03292C34.826 8.03292 34.7596 7.99579 34.714 7.92155C34.7016 7.8968 34.6953 7.87411 34.6953 7.85348C34.6953 7.83286 34.7016 7.80605 34.714 7.77305L35.8402 5.02587C35.9231 4.81963 36.0185 4.70207 36.1264 4.67319C36.1554 4.66907 36.1927 4.66288 36.2384 4.65463C36.3213 4.65463 36.3835 4.67319 36.425 4.71032C36.4914 4.75982 36.5578 4.865 36.6241 5.02587L37.7689 7.77305ZM35.5042 6.82639H36.9539L36.2259 5.00731L35.5042 6.82639ZM40.2764 7.85967C40.2764 7.91742 40.2546 7.96073 40.2111 7.98961C40.1675 8.01848 40.1302 8.03292 40.0991 8.03292C40.068 8.03292 40.04 8.02982 40.0151 8.02364C39.9902 8.01745 39.9695 8.00404 39.9529 7.98342C39.9114 7.95454 39.8906 7.9133 39.8906 7.85967V7.64312C39.7911 7.86173 39.6086 7.99786 39.3431 8.05148C39.2602 8.0721 39.171 8.08242 39.0756 8.08242C38.9802 8.08242 38.8806 8.06592 38.7769 8.03292C38.6732 7.99992 38.5841 7.94629 38.5094 7.87205C38.3435 7.7153 38.2605 7.48018 38.2605 7.16669V5.86735C38.2605 5.8096 38.2792 5.76423 38.3165 5.73123C38.3538 5.69823 38.3974 5.68173 38.4472 5.68173C38.4969 5.68173 38.5405 5.69823 38.5778 5.73123C38.6152 5.76423 38.6338 5.8096 38.6338 5.86735V7.19763C38.6338 7.42037 38.6795 7.57505 38.7707 7.66168C38.862 7.7483 38.9988 7.79161 39.1814 7.79161C39.4883 7.79161 39.6998 7.66786 39.816 7.42037C39.8616 7.33375 39.8865 7.23475 39.8906 7.12338V5.86735C39.8906 5.8096 39.9114 5.76423 39.9529 5.73123C39.9943 5.69823 40.04 5.68173 40.0897 5.68173C40.1395 5.68173 40.1831 5.69823 40.2204 5.73123C40.2577 5.76423 40.2764 5.8096 40.2764 5.86735V7.85967ZM42.2487 7.8968C42.2487 8.02054 42.1015 8.08242 41.807 8.08242C41.5871 8.08242 41.4316 8.02261 41.3403 7.90298C41.2408 7.77511 41.1869 7.56474 41.1786 7.27188V5.97253H40.9048C40.855 5.97253 40.8156 5.95707 40.7866 5.92613C40.7576 5.89519 40.743 5.86323 40.743 5.83023C40.743 5.79723 40.7555 5.76423 40.7804 5.73123C40.8053 5.69823 40.8467 5.68173 40.9048 5.68173H41.2035L41.2284 5.0135C41.2366 4.964 41.2595 4.92584 41.2968 4.89903C41.3341 4.87222 41.3735 4.85881 41.415 4.85881C41.4565 4.85881 41.4917 4.87119 41.5208 4.89594C41.5498 4.92069 41.5643 4.95987 41.5643 5.0135V5.68173H41.9936C42.0434 5.68173 42.0818 5.69823 42.1087 5.73123C42.1357 5.76423 42.1492 5.79723 42.1492 5.83023C42.1492 5.87147 42.1357 5.90551 42.1087 5.93232C42.0818 5.95913 42.0434 5.97253 41.9936 5.97253H41.5643V7.06769C41.5643 7.37293 41.5747 7.55752 41.5954 7.62146C41.6162 7.6854 41.6494 7.72974 41.695 7.75449C41.7406 7.77924 41.7966 7.79161 41.863 7.79161L42.1056 7.77305C42.1513 7.77305 42.1865 7.78749 42.2114 7.81636C42.2363 7.84524 42.2487 7.87205 42.2487 7.8968ZM42.5038 6.86351C42.5038 6.71502 42.5277 6.56652 42.5754 6.41802C42.6231 6.26953 42.6967 6.13547 42.7963 6.01585C43.0037 5.76423 43.2982 5.63842 43.6798 5.63842C44.0614 5.63842 44.3559 5.76423 44.5633 6.01585C44.7582 6.25509 44.8557 6.53558 44.8557 6.85732C44.8557 7.18319 44.7582 7.46368 44.5633 7.6988C44.3559 7.95454 44.0614 8.08242 43.6798 8.08242C43.2982 8.08242 43.0037 7.95454 42.7963 7.6988C42.6013 7.46781 42.5038 7.18938 42.5038 6.86351ZM42.9083 6.86351C42.9083 6.96251 42.9217 7.06769 42.9487 7.17907C42.9757 7.29044 43.0244 7.39356 43.0949 7.48843C43.2359 7.69055 43.4309 7.79161 43.6798 7.79161C43.9411 7.79161 44.136 7.69055 44.2646 7.48843C44.3849 7.29869 44.4451 7.08832 44.4451 6.85732C44.4451 6.61808 44.3849 6.41184 44.2646 6.23859C44.1319 6.03235 43.9369 5.92922 43.6798 5.92922C43.4309 5.92922 43.2359 6.03235 43.0949 6.23859C42.9705 6.40771 42.9083 6.61602 42.9083 6.86351ZM47.3632 6.12722C47.5623 5.80135 47.8485 5.63842 48.2218 5.63842C48.6076 5.63842 48.8647 5.79929 48.9933 6.12103C49.0389 6.24065 49.0617 6.37884 49.0617 6.53558V7.85967C49.0617 7.91742 49.042 7.96073 49.0026 7.98961C48.9632 8.01848 48.9207 8.03292 48.8751 8.03292C48.8253 8.03292 48.7807 8.01745 48.7413 7.98651C48.7019 7.95558 48.6822 7.9133 48.6822 7.85967V6.51083C48.6822 6.32109 48.6283 6.17259 48.5204 6.06534C48.4209 5.9746 48.2923 5.92922 48.1347 5.92922C47.8194 5.92922 47.6058 6.05709 47.4938 6.31284C47.4482 6.40771 47.4254 6.52321 47.4254 6.65933V7.85967C47.4254 7.91742 47.4057 7.96073 47.3663 7.98961C47.3269 8.01848 47.2844 8.03292 47.2387 8.03292C47.189 8.03292 47.1444 8.01745 47.105 7.98651C47.0656 7.95558 47.0459 7.9133 47.0459 7.85967V6.51083C47.0459 6.32109 46.994 6.17259 46.8903 6.06534C46.7908 5.9746 46.6767 5.92922 46.5481 5.92922C46.4195 5.92922 46.3138 5.94366 46.2308 5.97253C46.1478 6.00141 46.0732 6.04885 46.0068 6.11484C45.8741 6.24684 45.8036 6.43246 45.7953 6.6717V7.85967C45.7953 7.91742 45.7745 7.96073 45.733 7.98961C45.6916 8.01848 45.648 8.03292 45.6024 8.03292C45.5568 8.03292 45.5132 8.01745 45.4717 7.98651C45.4302 7.95558 45.4095 7.9133 45.4095 7.85967V5.86116C45.4095 5.80754 45.4302 5.76423 45.4717 5.73123C45.5132 5.69823 45.5526 5.68173 45.5899 5.68173C45.6273 5.68173 45.6563 5.68689 45.677 5.6972C45.6978 5.70751 45.7165 5.71885 45.733 5.73123C45.7745 5.76423 45.7953 5.80548 45.7953 5.85498V6.07772C45.8533 5.93747 45.9591 5.82816 46.1126 5.74979C46.2495 5.67554 46.4092 5.63842 46.5917 5.63842C46.8737 5.63842 47.0894 5.7271 47.2387 5.90447C47.2885 5.97047 47.33 6.04472 47.3632 6.12722ZM50.9096 6.60364C50.9967 6.60364 51.0838 6.60571 51.1709 6.60983V6.41184C51.1709 6.09009 50.9905 5.92922 50.6296 5.92922C50.4678 5.92922 50.3496 5.94366 50.275 5.97253C50.1422 6.02203 50.0468 6.06431 49.9887 6.09938C49.9307 6.13444 49.885 6.15197 49.8519 6.15197C49.8187 6.15197 49.7876 6.13959 49.7585 6.11484C49.7295 6.09009 49.715 6.05709 49.715 6.01585C49.715 5.98285 49.7336 5.94985 49.771 5.91685C49.9659 5.73123 50.2542 5.63842 50.6358 5.63842C51.0755 5.63842 51.3576 5.78485 51.482 6.07772C51.5235 6.18084 51.5442 6.30046 51.5442 6.43658L51.5318 7.86586C51.5318 7.91948 51.5131 7.96073 51.4758 7.98961C51.4384 8.01848 51.397 8.03292 51.3513 8.03292C51.3057 8.03292 51.2642 8.02054 51.2269 7.99579C51.1896 7.97104 51.1709 7.9298 51.1709 7.87205V7.6493C51.0714 7.8638 50.893 7.99786 50.6358 8.05148C50.557 8.0721 50.4678 8.08242 50.3683 8.08242C50.2687 8.08242 50.1702 8.06798 50.0727 8.0391C49.9753 8.01023 49.8892 7.96486 49.8145 7.90298C49.6611 7.77511 49.5843 7.60187 49.5843 7.38325C49.5843 6.86351 50.0261 6.60364 50.9096 6.60364ZM51.1709 6.88207C51.1045 6.89032 51.0278 6.89445 50.9407 6.89445C50.8536 6.89445 50.7644 6.89548 50.6732 6.89754C50.5819 6.8996 50.4948 6.90992 50.4118 6.92848C50.3289 6.94704 50.2542 6.97488 50.1878 7.01201C50.0468 7.08626 49.9722 7.20794 49.9639 7.37706C49.9639 7.50906 50.0178 7.61218 50.1256 7.68643C50.2086 7.75242 50.3268 7.78749 50.4803 7.79161C50.6669 7.79161 50.8287 7.7318 50.9656 7.61218C51.09 7.49668 51.1585 7.32344 51.1709 7.09244V6.88207ZM53.504 7.8968C53.504 8.02054 53.3567 8.08242 53.0622 8.08242C52.8424 8.08242 52.6868 8.02261 52.5956 7.90298C52.496 7.77511 52.4421 7.56474 52.4338 7.27188V5.97253H52.1601C52.1103 5.97253 52.0709 5.95707 52.0418 5.92613C52.0128 5.89519 51.9983 5.86323 51.9983 5.83023C51.9983 5.79723 52.0107 5.76423 52.0356 5.73123C52.0605 5.69823 52.102 5.68173 52.1601 5.68173H52.4587L52.4836 5.0135C52.4919 4.964 52.5147 4.92584 52.552 4.89903C52.5894 4.87222 52.6288 4.85881 52.6703 4.85881C52.7117 4.85881 52.747 4.87119 52.776 4.89594C52.8051 4.92069 52.8196 4.95987 52.8196 5.0135V5.68173H53.2489C53.2987 5.68173 53.337 5.69823 53.364 5.73123C53.391 5.76423 53.4044 5.79723 53.4044 5.83023C53.4044 5.87147 53.391 5.90551 53.364 5.93232C53.337 5.95913 53.2987 5.97253 53.2489 5.97253H52.8196V7.06769C52.8196 7.37293 52.8299 7.55752 52.8507 7.62146C52.8714 7.6854 52.9046 7.72974 52.9502 7.75449C52.9959 7.77924 53.0519 7.79161 53.1182 7.79161L53.3609 7.77305C53.4065 7.77305 53.4418 7.78749 53.4667 7.81636C53.4915 7.84524 53.504 7.87205 53.504 7.8968ZM56.0301 6.78926C56.0301 6.87589 55.9803 6.92332 55.8807 6.93157H54.1759C54.1925 7.35231 54.3584 7.62455 54.6737 7.7483C54.7608 7.77717 54.8603 7.79161 54.9723 7.79161C55.2046 7.79161 55.4411 7.70705 55.6816 7.53793C55.7563 7.49668 55.8185 7.50081 55.8683 7.55031C55.8932 7.57505 55.9015 7.5998 55.8932 7.62455C55.8932 7.6823 55.8787 7.72355 55.8496 7.7483C55.6215 7.97517 55.3208 8.08654 54.9474 8.08242C54.6073 8.08242 54.3336 7.97311 54.1262 7.75449C53.8939 7.52762 53.7777 7.22856 53.7777 6.85732C53.7777 6.51496 53.8731 6.2324 54.0639 6.00966C54.263 5.76217 54.5451 5.63842 54.9101 5.63842C55.2751 5.63842 55.553 5.74773 55.7438 5.96635C55.9264 6.16434 56.0218 6.43865 56.0301 6.78926ZM55.663 6.67789C55.6505 6.45515 55.5779 6.27159 55.4452 6.12722C55.3208 5.99522 55.1424 5.92922 54.9101 5.92922C54.711 5.92922 54.541 6.00347 54.3999 6.15197C54.2713 6.30046 54.2008 6.47577 54.1884 6.67789H55.663Z" fill="white"/>
<path d="M16.4947 11.3698V11.1571H15.6584V10.4708H16.446V10.2609H15.6584V9.66066H16.4947V9.44803H15.4148V11.3698M17.1293 11.3698V9.32422H16.8911V11.3698M18.1537 9.9002C17.7694 9.9002 17.5123 10.1855 17.5123 10.6592C17.5123 11.141 17.7964 11.3967 18.2105 11.3967C18.4081 11.3967 18.538 11.3671 18.6869 11.3025V11.0952C18.5353 11.1598 18.4054 11.1948 18.2214 11.1948C17.9318 11.1948 17.7667 11.0199 17.7585 10.6942H18.7518V10.5515C18.7518 10.1586 18.5245 9.9002 18.1537 9.9002ZM18.151 10.094C18.3919 10.094 18.5001 10.2609 18.5028 10.5058H17.764C17.7883 10.2474 17.9236 10.094 18.151 10.094ZM19.3892 11.3698H19.6626L20.2147 9.92711H19.9603L19.6518 10.7776C19.6112 10.8934 19.5489 11.071 19.53 11.1598H19.5192C19.5029 11.071 19.4461 10.896 19.4028 10.7776L19.0942 9.92711H18.8398M20.9983 9.90289C20.8088 9.90289 20.6302 9.95941 20.503 10.0267L20.576 10.2043C20.6951 10.1478 20.8332 10.094 20.9847 10.094C21.1742 10.094 21.2851 10.1747 21.2851 10.4143V10.5004L21.0388 10.5085C20.5652 10.5219 20.3433 10.6807 20.3433 10.9687C20.3433 11.2621 20.5381 11.3967 20.8007 11.3967C21.0443 11.3967 21.1606 11.324 21.2878 11.1652H21.2987L21.3447 11.3698H21.5179V10.3874C21.5179 10.0509 21.3501 9.90289 20.9983 9.90289ZM21.0686 10.6727L21.2824 10.6646V10.7938C21.2824 11.0737 21.0984 11.2056 20.8548 11.2056C20.6978 11.2056 20.5896 11.1329 20.5896 10.9714C20.5896 10.7884 20.7059 10.6861 21.0686 10.6727ZM22.4556 11.2029C22.323 11.2029 22.2283 11.1194 22.2283 10.9445V10.1101H22.6478V9.92711H22.2283V9.59606H22.0876L21.9928 9.90289L21.7844 9.99709V10.1101H21.9901V10.9499C21.9901 11.2998 22.1877 11.3967 22.415 11.3967C22.5017 11.3967 22.6072 11.3778 22.6586 11.3536V11.1733C22.6126 11.1894 22.526 11.2029 22.4556 11.2029ZM23.5126 9.9002C23.1283 9.9002 22.8712 10.1855 22.8712 10.6592C22.8712 11.141 23.1553 11.3967 23.5694 11.3967C23.767 11.3967 23.8969 11.3671 24.0458 11.3025V11.0952C23.8942 11.1598 23.7643 11.1948 23.5803 11.1948C23.2907 11.1948 23.1256 11.0199 23.1174 10.6942H24.1107V10.5515C24.1107 10.1586 23.8834 9.9002 23.5126 9.9002ZM23.5099 10.094C23.7508 10.094 23.859 10.2609 23.8617 10.5058H23.1229C23.1472 10.2474 23.2825 10.094 23.5099 10.094ZM24.4478 11.2244C24.4478 11.3536 24.5208 11.4074 24.6129 11.4074C24.7049 11.4074 24.7834 11.3536 24.7834 11.2244C24.7834 11.0925 24.7049 11.0441 24.6129 11.0441C24.5208 11.0441 24.4478 11.0925 24.4478 11.2244Z" fill="#1192DC"/>
</svg>
